<svg width="54" height="54" viewBox="0 0 54 54" fill="none" xmlns="http://www.w3.org/2000/svg">
<mask id="path-1-inside-1_226_475" fill="white">
<path fill-rule="evenodd" clip-rule="evenodd" d="M54.7075 0H13.7075L0.70752 14V54H54.7075H82.7075H99.7075L112.708 40V0H82.7075H54.7075Z"/>
</mask>
<path fill-rule="evenodd" clip-rule="evenodd" d="M54.7075 0H13.7075L0.70752 14V54H54.7075H82.7075H99.7075L112.708 40V0H82.7075H54.7075Z" fill="white"/>
<path d="M13.7075 0V-1H13.2715L12.9747 -0.680451L13.7075 0ZM0.70752 14L-0.025274 13.3195L-0.29248 13.6073V14H0.70752ZM0.70752 54H-0.29248V55H0.70752V54ZM99.7075 54V55H100.144L100.44 54.6805L99.7075 54ZM112.708 40L113.44 40.6805L113.708 40.3927V40H112.708ZM112.708 0H113.708V-1H112.708V0ZM13.7075 1H54.7075V-1H13.7075V1ZM1.44031 14.6805L14.4403 0.680451L12.9747 -0.680451L-0.025274 13.3195L1.44031 14.6805ZM1.70752 54V14H-0.29248V54H1.70752ZM54.7075 53H0.70752V55H54.7075V53ZM82.7075 53H54.7075V55H82.7075V53ZM99.7075 53H82.7075V55H99.7075V53ZM111.975 39.3195L98.9747 53.3195L100.44 54.6805L113.44 40.6805L111.975 39.3195ZM111.708 0V40H113.708V0H111.708ZM82.7075 1H112.708V-1H82.7075V1ZM54.7075 1H82.7075V-1H54.7075V1Z" fill="#2B5A4D" mask="url(#path-1-inside-1_226_475)"/>
</svg>
