<svg width="158" height="54" viewBox="0 0 158 54" fill="none" xmlns="http://www.w3.org/2000/svg">
<mask id="path-1-inside-1_45_1679" fill="white">
<path fill-rule="evenodd" clip-rule="evenodd" d="M76 0H13L0 14V54H76H82H145L158 40V0H82H76Z"/>
</mask>
<path fill-rule="evenodd" clip-rule="evenodd" d="M76 0H13L0 14V54H76H82H145L158 40V0H82H76Z" fill="white"/>
<path d="M13 0V-1H12.5639L12.2672 -0.680451L13 0ZM0 14L-0.732794 13.3195L-1 13.6073V14H0ZM0 54H-1V55H0V54ZM145 54V55H145.436L145.733 54.6805L145 54ZM158 40L158.733 40.6805L159 40.3927V40H158ZM158 0H159V-1H158V0ZM13 1H76V-1H13V1ZM0.732794 14.6805L13.7328 0.680451L12.2672 -0.680451L-0.732794 13.3195L0.732794 14.6805ZM1 54V14H-1V54H1ZM76 53H0V55H76V53ZM82 53H76V55H82V53ZM145 53H82V55H145V53ZM157.267 39.3195L144.267 53.3195L145.733 54.6805L158.733 40.6805L157.267 39.3195ZM157 0V40H159V0H157ZM82 1H158V-1H82V1ZM76 1H82V-1H76V1Z" fill="#2B5A4D" mask="url(#path-1-inside-1_45_1679)"/>
</svg>
