<svg width="138" height="27" viewBox="0 0 138 27" fill="none" xmlns="http://www.w3.org/2000/svg">
<path d="M27.224 18.089V25.2129H0.187308V0.99181H10.3642V18.089H27.224ZM46.3765 0.0758861C52.3922 0.0758861 56.8587 1.13881 59.7761 3.26466C62.6935 5.3905 64.1522 8.66973 64.1522 13.1024C64.1522 17.535 62.6935 20.8142 59.7761 22.94C56.8587 25.0659 52.3922 26.1288 46.3765 26.1288C40.3608 26.1288 35.8943 25.0659 32.9769 22.94C30.0595 20.8142 28.6008 17.535 28.6008 13.1024C28.6008 8.66973 30.0595 5.3905 32.9769 3.26466C35.8943 1.13881 40.3608 0.0758861 46.3765 0.0758861ZM46.3765 18.6657C50.8091 18.6657 53.0254 16.8113 53.0254 13.1024C53.0254 9.39343 50.8091 7.53896 46.3765 7.53896C41.9439 7.53896 39.7276 9.39343 39.7276 13.1024C39.7276 16.8113 41.9439 18.6657 46.3765 18.6657ZM84.4652 17.1053V11.6097H100.68V25.2129H93.5566V23.0757C91.2272 25.1111 87.8802 26.1288 83.5154 26.1288C77.4318 26.1288 72.9314 25.0659 70.014 22.94C67.0966 20.7916 65.6379 17.501 65.6379 13.0684C65.6379 8.65843 67.0853 5.3905 69.9801 3.26466C72.8975 1.13881 77.3414 0.0758861 83.3118 0.0758861C89.1466 0.0758861 93.4435 0.923964 96.2026 2.62012C98.9843 4.29366 100.443 6.64566 100.579 9.67612H88.8752C88.2646 8.25135 86.4328 7.53896 83.3797 7.53896C78.9697 7.53896 76.7647 9.39343 76.7647 13.1024C76.7647 15.183 77.3075 16.7208 78.393 17.7159C79.4785 18.711 81.2086 19.2085 83.5832 19.2085C84.8949 19.2085 86.0144 19.0728 86.9416 18.8014C87.8688 18.53 88.5586 18.2247 89.0109 17.8855C89.4858 17.5463 89.7233 17.2862 89.7233 17.1053H84.4652ZM120.219 0.0758861C126.235 0.0758861 130.701 1.13881 133.618 3.26466C136.536 5.3905 137.995 8.66973 137.995 13.1024C137.995 17.535 136.536 20.8142 133.618 22.94C130.701 25.0659 126.235 26.1288 120.219 26.1288C114.203 26.1288 109.737 25.0659 106.819 22.94C103.902 20.8142 102.443 17.535 102.443 13.1024C102.443 8.66973 103.902 5.3905 106.819 3.26466C109.737 1.13881 114.203 0.0758861 120.219 0.0758861ZM120.219 18.6657C124.651 18.6657 126.868 16.8113 126.868 13.1024C126.868 9.39343 124.651 7.53896 120.219 7.53896C115.786 7.53896 113.57 9.39343 113.57 13.1024C113.57 16.8113 115.786 18.6657 120.219 18.6657Z" fill="#FC9A53"/>
</svg>
