<svg width="14" height="14" viewBox="0 0 14 14" fill="none" xmlns="http://www.w3.org/2000/svg">
<path d="M10.3632 2.42578C10.1877 2.42578 10.0449 2.56859 10.0449 2.74406C10.0449 2.91954 10.1877 3.06234 10.3632 3.06234C10.5387 3.06234 10.6815 2.91957 10.6815 2.74406C10.6815 2.56856 10.5387 2.42578 10.3632 2.42578Z" fill="#2B5A4D"/>
<path d="M6.55409 3.73438C4.99822 3.73438 3.73242 5.00018 3.73242 6.55605C3.73242 8.11191 4.99822 9.37774 6.55409 9.37774C8.10998 9.37774 9.37579 8.11194 9.37579 6.55607C9.37579 5.0002 8.10998 3.73438 6.55409 3.73438Z" fill="#2B5A4D"/>
<path d="M9.51626 0H3.59397C1.61225 0 0 1.61225 0 3.594V9.51626C0 11.498 1.61225 13.1102 3.59397 13.1102H9.51626C11.498 13.1102 13.1102 11.498 13.1102 9.51626V3.594C13.1102 1.61225 11.498 0 9.51626 0ZM6.55512 10.151C4.57232 10.151 2.95925 8.53791 2.95925 6.55512C2.95925 4.57232 4.57235 2.95928 6.55512 2.95928C8.53788 2.95928 10.151 4.57235 10.151 6.55512C10.151 8.53788 8.53788 10.151 6.55512 10.151ZM10.3661 3.83669C9.76367 3.83669 9.27357 3.34659 9.27357 2.74419C9.27357 2.14178 9.76367 1.65166 10.3661 1.65166C10.9685 1.65166 11.4586 2.14176 11.4586 2.74416C11.4586 3.34657 10.9685 3.83669 10.3661 3.83669Z" fill="#2B5A4D"/>
</svg>
