<svg width="16" height="16" viewBox="0 0 16 16" fill="none" xmlns="http://www.w3.org/2000/svg">
<path d="M1.86969 0.49707C0.739163 0.49707 0 1.23943 0 2.21517C0 3.16935 0.717144 3.93288 1.82631 3.93288H1.84777C3.00041 3.93288 3.71774 3.16935 3.71774 2.21517C3.69619 1.23943 3.00041 0.49707 1.86969 0.49707Z" fill="#2B5A4D"/>
<path d="M0.195312 5.29004H3.50033V15.2333H0.195312V5.29004Z" fill="#2B5A4D"/>
<path d="M11.6137 5.05762C9.83074 5.05762 8.63519 6.73299 8.63519 6.73299V5.29099H5.33008V15.2343H8.635V9.68155C8.635 9.38429 8.65655 9.08749 8.74387 8.87492C8.9828 8.28133 9.52651 7.66638 10.4396 7.66638C11.6355 7.66638 12.1138 8.57822 12.1138 9.91492V15.2343H15.4185V9.53297C15.4185 6.47882 13.788 5.05762 11.6137 5.05762Z" fill="#2B5A4D"/>
</svg>
