<svg width="17" height="14" viewBox="0 0 17 14" fill="none" xmlns="http://www.w3.org/2000/svg">
<path d="M16.6386 1.60043C16.0199 1.87184 15.3606 2.05175 14.6732 2.1391C15.3803 1.7169 15.92 1.05343 16.1738 0.253739C15.5145 0.646826 14.7865 0.924483 14.0107 1.07943C13.3847 0.412846 12.4925 0 11.5191 0C9.63063 0 8.11028 1.53283 8.11028 3.41195C8.11028 3.68233 8.13316 3.94231 8.18931 4.18981C5.35347 4.0515 2.84416 2.69233 1.15846 0.621868C0.864168 1.13247 0.691542 1.7169 0.691542 2.34604C0.691542 3.52738 1.29989 4.57458 2.2067 5.18085C1.65866 5.17045 1.12103 5.01134 0.665544 4.76072C0.665544 4.77112 0.665544 4.78464 0.665544 4.79816C0.665544 6.45578 1.84793 7.83262 3.39844 8.1498C3.12078 8.22571 2.81816 8.26211 2.50411 8.26211C2.28573 8.26211 2.06527 8.24963 1.85832 8.20387C2.30029 9.55472 3.55442 10.5478 5.04566 10.5801C3.88511 11.4879 2.41156 12.0349 0.816332 12.0349C0.536595 12.0349 0.268298 12.0224 0 11.9881C1.51099 12.9625 3.30172 13.5189 5.23284 13.5189C11.5098 13.5189 14.9415 8.3193 14.9415 3.81232C14.9415 3.66153 14.9363 3.51595 14.929 3.3714C15.606 2.89096 16.1748 2.29093 16.6386 1.60043Z" fill="#2B5A4D"/>
</svg>
