<svg width="57" height="54" viewBox="0 0 57 54" fill="none" xmlns="http://www.w3.org/2000/svg">
<mask id="path-1-inside-1_45_1714" fill="white">
<path fill-rule="evenodd" clip-rule="evenodd" d="M14 0H13L0 14V54H14H26H44L57 40V0H26H14Z"/>
</mask>
<path fill-rule="evenodd" clip-rule="evenodd" d="M14 0H13L0 14V54H14H26H44L57 40V0H26H14Z" fill="white"/>
<path d="M13 0V-1H12.5639L12.2672 -0.680451L13 0ZM0 14L-0.732794 13.3195L-1 13.6073V14H0ZM0 54H-1V55H0V54ZM44 54V55H44.4361L44.7328 54.6805L44 54ZM57 40L57.7328 40.6805L58 40.3927V40H57ZM57 0H58V-1H57V0ZM13 1H14V-1H13V1ZM0.732794 14.6805L13.7328 0.680451L12.2672 -0.680451L-0.732794 13.3195L0.732794 14.6805ZM1 54V14H-1V54H1ZM14 53H0V55H14V53ZM26 53H14V55H26V53ZM44 53H26V55H44V53ZM56.2672 39.3195L43.2672 53.3195L44.7328 54.6805L57.7328 40.6805L56.2672 39.3195ZM56 0V40H58V0H56ZM26 1H57V-1H26V1ZM14 1H26V-1H14V1Z" fill="#2B5A4D" mask="url(#path-1-inside-1_45_1714)"/>
</svg>
