<svg width="31" height="31" viewBox="0 0 31 31" fill="none" xmlns="http://www.w3.org/2000/svg">
<path d="M2.16298 26.7019H28.4464C29.0861 26.7019 29.6094 27.2252 29.6094 27.8648V29.6094H1V27.8648C1 27.2252 1.52334 26.7019 2.16298 26.7019Z" stroke="#2B5A4D" stroke-miterlimit="22.926" stroke-linecap="round" stroke-linejoin="round"/>
<path d="M10.3418 19.7242H2.16211V26.7021M12.6869 12.7463H10.9233V26.1207M19.6845 26.1207V12.7463H17.9204M28.4456 26.7021V16.2353H20.2659" stroke="#2B5A4D" stroke-miterlimit="22.926" stroke-linecap="round" stroke-linejoin="round"/>
<path d="M15.9687 1.39504L16.9903 3.27425L19.0558 3.64012C19.4691 3.71234 19.7457 4.10584 19.6735 4.51922C19.644 4.68844 19.5605 4.83468 19.4438 4.94354L18.0027 6.46362L18.2932 8.54193C18.3505 8.95694 18.0607 9.33985 17.6457 9.39725C17.4932 9.41835 17.3445 9.39364 17.2152 9.33189L15.2829 8.41138L13.3979 9.32892C13.0207 9.51261 12.566 9.35567 12.3823 8.97851C12.306 8.8218 12.2885 8.65166 12.3212 8.49314L12.5924 6.42512L11.1356 4.91417C10.8453 4.61238 10.8546 4.13236 11.1564 3.84207C11.274 3.72897 11.4187 3.66135 11.5686 3.63884L13.6492 3.25215L14.6354 1.40091C14.8323 1.0319 15.2909 0.892281 15.66 1.08912C15.7957 1.16145 15.9003 1.26932 15.9687 1.39504Z" stroke="#00CD94" stroke-miterlimit="2.613" stroke-linecap="round" stroke-linejoin="round"/>
<path d="M15.3047 12.7461H15.3061" stroke="#00CD94" stroke-miterlimit="2.613" stroke-linecap="round" stroke-linejoin="round"/>
</svg>
