<svg width="20" height="30" viewBox="0 0 20 30" fill="none" xmlns="http://www.w3.org/2000/svg">
<path d="M9.73821 2.27834C9.42323 2.27606 9.16636 2.52952 9.16408 2.84392C9.1618 3.15832 9.41469 3.4152 9.72966 3.41748C10.0441 3.41975 10.3009 3.16687 10.3032 2.85246C10.3055 2.53806 10.0526 2.28118 9.73821 2.27834Z" fill="#00CD94"/>
<path d="M9.71227 5.6959C7.5131 5.6803 5.71206 7.45445 5.69543 9.65294C5.67885 11.8513 7.45398 13.6532 9.65246 13.6698C9.66266 13.6698 9.67279 13.6699 9.68299 13.6699C11.8675 13.6699 13.6528 11.901 13.6693 9.71274C13.6859 7.51448 11.9108 5.71248 9.71227 5.6959ZM9.68288 12.5308C9.6757 12.5308 9.66818 12.5307 9.661 12.5307C8.09064 12.5188 6.82266 11.2317 6.83451 9.66148C6.8463 8.09829 8.12146 6.83487 9.68185 6.83487C9.68903 6.83487 9.69655 6.83493 9.70372 6.83499C11.2741 6.84683 12.5421 8.13395 12.5302 9.7042C12.5184 11.2674 11.2433 12.5308 9.68288 12.5308Z" fill="#00CD94"/>
<path d="M12.1682 2.71064C11.872 2.60549 11.5462 2.7607 11.4411 3.05722C11.336 3.35374 11.4912 3.67925 11.7877 3.78439C14.2964 4.67355 15.9684 7.06295 15.9484 9.73008C15.946 10.0446 16.1991 10.3015 16.5137 10.3039C16.5151 10.3039 16.5166 10.3039 16.5181 10.3039C16.8305 10.3039 17.0851 10.0517 17.0875 9.73862C17.1112 6.58622 15.1343 3.76189 12.1682 2.71064Z" fill="#00CD94"/>
<path d="M13.1776 21.441C16.966 16.5646 19.3335 14.0218 19.3655 9.75549C19.4056 4.38769 15.0494 0 9.682 0C4.37725 0 0.0406516 4.29615 0.00032602 9.61025C-0.0322534 13.9922 2.37925 16.5316 6.19378 21.4402C2.39901 22.0073 0.00032602 23.4322 0.00032602 25.175C0.00032602 26.3425 1.07943 27.3901 3.03893 28.1248C4.82242 28.7936 7.18198 29.1619 9.68291 29.1619C12.1838 29.1619 14.5434 28.7936 16.3269 28.1248C18.2864 27.39 19.3655 26.3424 19.3655 25.175C19.3655 23.4331 16.969 22.0085 13.1776 21.441ZM1.13941 9.61885C1.17495 4.92963 5.00104 1.13914 9.68211 1.13914C14.4186 1.13914 18.2617 5.01154 18.2264 9.747C18.1961 13.7986 15.6853 16.2954 11.6769 21.5208C10.9619 22.4524 10.3053 23.3332 9.68376 24.1948C9.06407 23.3327 8.42057 22.4677 7.69488 21.5205C3.52073 16.0763 1.10854 13.7682 1.13941 9.61885ZM9.68291 28.0229C4.79309 28.0229 1.13941 26.5194 1.13941 25.175C1.13941 24.178 3.3236 22.9186 6.99607 22.4825C7.80788 23.5476 8.51962 24.5153 9.21768 25.5037C9.32431 25.6546 9.49757 25.7445 9.68239 25.7446C9.68257 25.7446 9.68274 25.7446 9.68291 25.7446C9.86756 25.7446 10.0408 25.655 10.1476 25.5044C10.839 24.5289 11.5702 23.5374 12.3751 22.4831C16.0442 22.9197 18.2264 24.1787 18.2264 25.1751C18.2263 26.5194 14.5727 28.0229 9.68291 28.0229Z" fill="#2B5A4D"/>
</svg>
