<?xml version="1.0" encoding="UTF-8"?>
<svg width="32" height="37" fill="none" version="1.1" viewBox="0 0 32 37" xmlns="http://www.w3.org/2000/svg" xmlns:cc="http://creativecommons.org/ns#" xmlns:dc="http://purl.org/dc/elements/1.1/" xmlns:rdf="http://www.w3.org/1999/02/22-rdf-syntax-ns#">
 <metadata>
  <rdf:RDF>
   <cc:Work rdf:about="">
    <dc:format>image/svg+xml</dc:format>
    <dc:type rdf:resource="http://purl.org/dc/dcmitype/StillImage"/>
    <dc:title/>
   </cc:Work>
  </rdf:RDF>
 </metadata>
 <path d="m16.422 19.822c-0.0672-0.0145-0.1361-0.0171-0.2042-0.0069-0.6822-0.0795-1.1968-0.6566-1.198-1.3432 0-0.329-0.2667-0.5957-0.5957-0.5957-0.3291 0-0.5958 0.2667-0.5958 0.5957 0.0017 1.1465 0.7686 2.1507 1.874 2.4541v0.5958c0 0.329 0.2668 0.5958 0.5958 0.5958s0.5958-0.2668 0.5958-0.5958v-0.5597c1.2759-0.2671 2.1431-1.4554 2.009-2.752-0.1344-1.2965-1.2268-2.2819-2.5303-2.2821-0.7471 0-1.3528-0.6057-1.3528-1.3528 0-0.747 0.6057-1.3527 1.3528-1.3527 0.747 0 1.3527 0.6057 1.3527 1.3527 0 0.3291 0.2667 0.5958 0.5957 0.5958 0.3291 0 0.5958-0.2667 0.5958-0.5958-0.0017-1.2037-0.8451-2.242-2.0229-2.4904v-0.5423c0-0.329-0.2668-0.5957-0.5958-0.5957s-0.5958 0.2667-0.5958 0.5957v0.5787c-1.2294 0.3357-2.0206 1.5293-1.8513 2.7924s1.2471 2.2059 2.5216 2.2056c0.7371 0 1.3384 0.5903 1.3518 1.3271 0.0137 0.7369-0.5658 1.349-1.3024 1.3757z" fill="#00CD94"/>
 <path d="m7.7324 16.57c0 4.7715 3.8679 8.6394 8.6394 8.6394 4.7714 0 8.6393-3.8679 8.6393-8.6394 0-4.7714-3.8679-8.6393-8.6393-8.6393-4.7692 0.00524-8.6338 3.8702-8.6394 8.6393zm8.6394-7.4478c4.1134 0 7.4478 3.3344 7.4478 7.4478s-3.3344 7.4478-7.4478 7.4478c-4.1135 0-7.4478-3.3344-7.4478-7.4478 0.00465-4.1114 3.3364-7.4431 7.4478-7.4478z" fill="#2B5A4D"/>
 <path d="m4.0515 26.678 4.667 2.2051c0.6444-1.1985 1.8804-1.9613 3.2407-1.9997l4.3083-0.1184c0.6822-0.0195 1.3516-0.1923 1.9581-0.5056l0.4384-0.2272c2.2447-1.17 4.9201-1.1671 7.1624 0.0076l-0.02734-0.9932c-9e-3 -0.329 0.25018-0.603 0.57919-0.612l4.7243-0.1301c0.32902-9e-3 0.60276 0.2502 0.61178 0.5792l0.28538 10.367c9e-3 0.3291-0.25018 0.6031-0.5792 0.6121l-4.7243 0.1301h-0.01629c-0.3229 0-0.58705-0.2569-0.59577-0.5795l-0.01368-0.496-1.2273-0.6572c-0.48174-0.2592-1.0449-0.3209-1.5712-0.1719l-7.3291 2.057c-0.0128 0.0038-0.0256 0.0067-0.0387 0.0096-0.5297 0.1108-1.0697 0.1664-1.6107 0.1661-1.1462 6e-4 -2.279-0.2464-3.3207-0.7247-0.0256-0.0116-0.0504-0.0253-0.0739-0.0407l-10.627-6.8735c-0.2647-0.1714-0.3502-0.519-0.1952-0.7936 0.789-1.3999 2.5388-1.9331 3.9744-1.2108zm26.741 8.0104-0.25251-9.1763-3.5331 0.0971 0.25251 9.1767zm-19.283-0.1559c1.2942 0.5842 2.7397 0.7453 4.1309 0.4611l7.3093-2.0518c0.82268-0.2324 1.7033-0.1361 2.4558 0.2685l0.6272 0.336-0.16786-6.1011c-1.9875-1.3219-4.5364-1.4578-6.653-0.355l-0.4384 0.2272c-0.7662 0.3957-1.6113 0.6139-2.4733 0.6389l-4.3086 0.1184c-1.2102 0.0349-2.2379 0.8966-2.4835 2.0823l6.4177-0.1772c0.329-9e-3 0.6028 0.2505 0.6121 0.5792 9e-3 0.329-0.2505 0.6031-0.5792 0.6121l-7.0824 0.1949h-0.0166c-0.3226-3e-4 -0.5865-0.2572-0.5952-0.5795-0.0073-0.2589 0.0119-0.5181 0.0576-0.7729l-4.7869-2.2618c-0.0046-0.0021-0.0093-0.0044-0.0139-0.0067-0.679-0.3436-1.4999-0.2287-2.0585 0.2883z" fill="#2b5a4d"/>
 <g fill="#00CD94">
  <path d="m16.969 6.2556v-5.6599c0-0.32902-0.2668-0.59578-0.5958-0.59578s-0.5958 0.26676-0.5958 0.59578v5.6599c0 0.32902 0.2668 0.59578 0.5958 0.59578s0.5958-0.26676 0.5958-0.59578z"/>
  <path d="m21.436 6.2558v-2.681c0-0.32901-0.2668-0.59578-0.5958-0.59578s-0.5958 0.26677-0.5958 0.59578v2.681c0 0.32901 0.2668 0.59577 0.5958 0.59577s0.5958-0.26676 0.5958-0.59577z"/>
  <path d="m12.5 6.2558v-2.681c0-0.32901-0.2667-0.59578-0.5957-0.59578s-0.5958 0.26677-0.5958 0.59578v2.681c0 0.32901 0.2668 0.59577 0.5958 0.59577s0.5957-0.26676 0.5957-0.59577z"/>
 </g>
</svg>
