<svg width="32" height="37" viewBox="0 0 32 37" fill="none" xmlns="http://www.w3.org/2000/svg">
<path d="M16.4219 19.8225C16.3547 19.808 16.2858 19.8054 16.2177 19.8156C15.5355 19.7361 15.0209 19.159 15.0197 18.4724C15.0197 18.1434 14.753 17.8767 14.424 17.8767C14.0949 17.8767 13.8282 18.1434 13.8282 18.4724C13.8299 19.6189 14.5968 20.6231 15.7022 20.9265V21.5223C15.7022 21.8513 15.969 22.1181 16.298 22.1181C16.627 22.1181 16.8938 21.8513 16.8938 21.5223V20.9626C18.1697 20.6955 19.0369 19.5072 18.9028 18.2106C18.7684 16.9141 17.676 15.9287 16.3725 15.9285C15.6254 15.9285 15.0197 15.3228 15.0197 14.5757C15.0197 13.8287 15.6254 13.223 16.3725 13.223C17.1195 13.223 17.7252 13.8287 17.7252 14.5757C17.7252 14.9048 17.9919 15.1715 18.3209 15.1715C18.65 15.1715 18.9167 14.9048 18.9167 14.5757C18.915 13.372 18.0716 12.3337 16.8938 12.0853V11.543C16.8938 11.214 16.627 10.9473 16.298 10.9473C15.969 10.9473 15.7022 11.214 15.7022 11.543V12.1217C14.4728 12.4574 13.6816 13.651 13.8509 14.9141C14.0202 16.1772 15.098 17.12 16.3725 17.1197C17.1096 17.1197 17.7109 17.71 17.7243 18.4468C17.738 19.1837 17.1585 19.7958 16.4219 19.8225Z" fill="#00CD94"/>
<path d="M7.73242 16.57C7.73242 21.3415 11.6003 25.2094 16.3718 25.2094C21.1432 25.2094 25.0111 21.3415 25.0111 16.57C25.0111 11.7986 21.1432 7.93066 16.3718 7.93066C11.6026 7.9359 7.73795 11.8009 7.73242 16.57ZM16.3718 9.12222C20.4852 9.12222 23.8196 12.4566 23.8196 16.57C23.8196 20.6834 20.4852 24.0178 16.3718 24.0178C12.2583 24.0178 8.92398 20.6834 8.92398 16.57C8.92863 12.4586 12.2604 9.12687 16.3718 9.12222Z" fill="#2B5A4D"/>
<path d="M27.9485 26.6779L23.2815 28.883C22.6371 27.6845 21.4011 26.9217 20.0408 26.8833L15.7325 26.7649C15.0503 26.7454 14.3809 26.5726 13.7744 26.2593L13.336 26.0321C11.0913 24.8621 8.41586 24.865 6.17356 26.0397L6.2009 25.0465C6.20992 24.7175 5.95072 24.4435 5.62171 24.4345L0.897384 24.3044C0.568369 24.2954 0.294626 24.5546 0.285608 24.8836L0.000228358 35.2509C-0.00878969 35.58 0.250408 35.854 0.579423 35.863L5.30375 35.9931H5.32004C5.64294 35.9931 5.90709 35.7362 5.91581 35.4136L5.92949 34.9176L7.15682 34.2604C7.63856 34.0012 8.20176 33.9395 8.72801 34.0885L16.0571 36.1455C16.0699 36.1493 16.0827 36.1522 16.0958 36.1551C16.6255 36.2659 17.1655 36.3215 17.7065 36.3212C18.8527 36.3218 19.9855 36.0748 21.0272 35.5965C21.0528 35.5849 21.0776 35.5712 21.1011 35.5558L31.7277 28.6823C31.9924 28.5109 32.0779 28.1633 31.9229 27.8887C31.1339 26.4888 29.3841 25.9556 27.9485 26.6779ZM1.20778 34.6883L1.46029 25.512L4.99335 25.6091L4.74084 34.7858L1.20778 34.6883ZM20.4905 34.5324C19.1963 35.1166 17.7508 35.2777 16.3596 34.9935L9.05033 32.9417C8.22765 32.7093 7.34707 32.8056 6.5945 33.2102L5.9673 33.5462L6.13516 27.4451C8.12263 26.1232 10.6716 25.9873 12.7882 27.0901L13.2266 27.3173C13.9928 27.713 14.8379 27.9312 15.6999 27.9562L20.0085 28.0746C21.2187 28.1095 22.2464 28.9712 22.492 30.1569L16.0743 29.9797C15.7453 29.9707 15.4715 30.2302 15.4622 30.5589C15.4532 30.8879 15.7127 31.162 16.0414 31.171L23.1238 31.3659H23.1404C23.463 31.3656 23.7269 31.1087 23.7356 30.7864C23.7429 30.5275 23.7237 30.2683 23.678 30.0135L28.4649 27.7517C28.4695 27.7496 28.4742 27.7473 28.4788 27.745C29.1578 27.4014 29.9787 27.5163 30.5373 28.0333L20.4905 34.5324Z" fill="#2B5A4D"/>
<path d="M16.9689 6.25565V0.595777C16.9689 0.266761 16.7021 0 16.3731 0C16.0441 0 15.7773 0.266761 15.7773 0.595777V6.25565C15.7773 6.58467 16.0441 6.85143 16.3731 6.85143C16.7021 6.85143 16.9689 6.58467 16.9689 6.25565Z" fill="#00CD94"/>
<path d="M21.4357 6.25578V3.57478C21.4357 3.24577 21.1689 2.979 20.8399 2.979C20.5109 2.979 20.2441 3.24577 20.2441 3.57478V6.25578C20.2441 6.58479 20.5109 6.85155 20.8399 6.85155C21.1689 6.85155 21.4357 6.58479 21.4357 6.25578Z" fill="#00CD94"/>
<path d="M12.5001 6.25578V3.57478C12.5001 3.24577 12.2334 2.979 11.9044 2.979C11.5754 2.979 11.3086 3.24577 11.3086 3.57478V6.25578C11.3086 6.58479 11.5754 6.85155 11.9044 6.85155C12.2334 6.85155 12.5001 6.58479 12.5001 6.25578Z" fill="#00CD94"/>
</svg>
