<svg width="27" height="28" viewBox="0 0 27 28" fill="none" xmlns="http://www.w3.org/2000/svg">
<path d="M22.9166 1.96428H20.9524C20.9524 0.881309 20.0711 0 18.9881 0C17.9051 0 17.0238 0.881309 17.0238 1.96428H9.16666C9.16666 0.881309 8.28535 0 7.20237 0C6.1194 0 5.23809 0.881309 5.23809 1.96428H3.27381C1.46863 1.96428 0 3.43291 0 5.23809V24.2262C0 26.0313 1.46863 27.5 3.27381 27.5H22.9166C24.7218 27.5 26.1905 26.0313 26.1905 24.2262V5.23809C26.1905 3.43291 24.7218 1.96428 22.9166 1.96428ZM18.3333 1.96428C18.3333 1.60351 18.6267 1.30952 18.9881 1.30952C19.3495 1.30952 19.6428 1.60351 19.6428 1.96428V3.27381C19.6428 3.63458 19.3495 3.92857 18.9881 3.92857C18.6267 3.92857 18.3333 3.63458 18.3333 3.27381V1.96428ZM6.54761 1.96428C6.54761 1.60351 6.84095 1.30952 7.20237 1.30952C7.5638 1.30952 7.85714 1.60351 7.85714 1.96428V3.27381C7.85714 3.63458 7.5638 3.92857 7.20237 3.92857C6.84095 3.92857 6.54761 3.63458 6.54761 3.27381V1.96428ZM1.30952 5.23809C1.30952 4.15512 2.19083 3.27381 3.27381 3.27381H5.23809C5.23809 4.35678 6.1194 5.23809 7.20237 5.23809C8.28535 5.23809 9.16666 4.35678 9.16666 3.27381H17.0238C17.0238 4.35678 17.9051 5.23809 18.9881 5.23809C20.0711 5.23809 20.9524 4.35678 20.9524 3.27381H22.9166C23.9996 3.27381 24.8809 4.15512 24.8809 5.23809V7.85714H1.30952V5.23809ZM24.8809 24.2262C24.8809 25.3091 23.9996 26.1905 22.9166 26.1905H3.27381C2.19083 26.1905 1.30952 25.3091 1.30952 24.2262V9.16666H24.8809V24.2262Z" fill="#2B5A4D"/>
<path d="M5.23726 16.369H7.20154C7.92374 16.369 8.51106 15.7817 8.51106 15.0595V13.0952C8.51106 12.373 7.92374 11.7856 7.20154 11.7856H5.23726C4.51506 11.7856 3.92773 12.373 3.92773 13.0952V15.0595C3.92773 15.7817 4.51506 16.369 5.23726 16.369ZM5.23726 13.0952H7.20154L7.20285 15.0595H5.23726V13.0952Z" fill="#00CD94"/>
<path d="M12.1123 16.369H14.0765C14.7987 16.369 15.3861 15.7817 15.3861 15.0595V13.0952C15.3861 12.373 14.7987 11.7856 14.0765 11.7856H12.1123C11.3901 11.7856 10.8027 12.373 10.8027 13.0952V15.0595C10.8027 15.7817 11.3901 16.369 12.1123 16.369ZM12.1123 13.0952H14.0765L14.0779 15.0595H12.1123V13.0952Z" fill="#00CD94"/>
<path d="M18.9873 16.369H20.9515C21.6737 16.369 22.2611 15.7817 22.2611 15.0595V13.0952C22.2611 12.373 21.6737 11.7856 20.9515 11.7856H18.9873C18.2651 11.7856 17.6777 12.373 17.6777 13.0952V15.0595C17.6777 15.7817 18.2651 16.369 18.9873 16.369ZM18.9873 13.0952H20.9515L20.9529 15.0595H18.9873V13.0952Z" fill="#00CD94"/>
<path d="M5.23726 23.5716H7.20154C7.92374 23.5716 8.51106 22.9843 8.51106 22.2621V20.2978C8.51106 19.5756 7.92374 18.9883 7.20154 18.9883H5.23726C4.51506 18.9883 3.92773 19.5756 3.92773 20.2978V22.2621C3.92773 22.9843 4.51506 23.5716 5.23726 23.5716ZM5.23726 20.2978H7.20154L7.20285 22.2621H5.23726V20.2978Z" fill="#00CD94"/>
<path d="M12.1123 23.5716H14.0765C14.7987 23.5716 15.3861 22.9843 15.3861 22.2621V20.2978C15.3861 19.5756 14.7987 18.9883 14.0765 18.9883H12.1123C11.3901 18.9883 10.8027 19.5756 10.8027 20.2978V22.2621C10.8027 22.9843 11.3901 23.5716 12.1123 23.5716ZM12.1123 20.2978H14.0765L14.0779 22.2621H12.1123V20.2978Z" fill="#00CD94"/>
<path d="M18.9873 23.5716H20.9515C21.6737 23.5716 22.2611 22.9843 22.2611 22.2621V20.2978C22.2611 19.5756 21.6737 18.9883 20.9515 18.9883H18.9873C18.2651 18.9883 17.6777 19.5756 17.6777 20.2978V22.2621C17.6777 22.9843 18.2651 23.5716 18.9873 23.5716ZM18.9873 20.2978H20.9515L20.9529 22.2621H18.9873V20.2978Z" fill="#00CD94"/>
</svg>
