<svg width="28" height="28" viewBox="0 0 28 28" fill="none" xmlns="http://www.w3.org/2000/svg">
<path d="M7.0625 7.06225L8.18335 8.18311" stroke="#2B5A4D" stroke-miterlimit="10" stroke-linecap="round" stroke-linejoin="round"/>
<path d="M4.16992 14H5.75529" stroke="#2B5A4D" stroke-miterlimit="10" stroke-linecap="round" stroke-linejoin="round"/>
<path d="M22.2441 14H23.8295" stroke="#2B5A4D" stroke-miterlimit="10" stroke-linecap="round" stroke-linejoin="round"/>
<path d="M7.0625 20.9375L8.18335 19.8166" stroke="#2B5A4D" stroke-miterlimit="10" stroke-linecap="round" stroke-linejoin="round"/>
<path d="M19.8164 8.18311L20.9373 7.06225" stroke="#2B5A4D" stroke-miterlimit="10" stroke-linecap="round" stroke-linejoin="round"/>
<path d="M17.3615 17.3613L14 13.9998V9.24373" stroke="#00CD94" stroke-miterlimit="10" stroke-linecap="round" stroke-linejoin="round"/>
<path d="M14 4.17098V5.75635" stroke="#2B5A4D" stroke-miterlimit="10" stroke-linecap="round" stroke-linejoin="round"/>
<path d="M14 22.2437V23.8291" stroke="#2B5A4D" stroke-miterlimit="10" stroke-linecap="round" stroke-linejoin="round"/>
<path d="M19.8164 19.8166L20.9373 20.9375" stroke="#2B5A4D" stroke-miterlimit="10" stroke-linecap="round" stroke-linejoin="round"/>
<path d="M13.9992 23.8291C8.57935 23.8291 4.16992 19.4197 4.16992 13.9998C4.16992 8.58 8.57935 4.17056 13.9992 4.17056C19.419 4.17056 23.8285 8.58 23.8285 13.9998C23.8285 19.4197 19.419 23.8291 13.9992 23.8291Z" stroke="#00CD94" stroke-miterlimit="10" stroke-linecap="round" stroke-linejoin="round"/>
<path d="M23.7249 23.1952C23.7249 23.487 23.4883 23.7236 23.1964 23.7236C22.9046 23.7236 22.668 23.487 22.668 23.1952C22.668 22.9033 22.9046 22.6667 23.1964 22.6667C23.4883 22.6667 23.7249 22.9033 23.7249 23.1952Z" fill="#2B5A4D"/>
<path d="M21.3677 24.7153C19.2744 26.1566 16.7367 27 14 27C6.81512 27 1 21.1859 1 14C1 6.81512 6.81407 0.999999 14 0.999999C21.1849 0.999999 27 6.81406 27 14C27 16.7365 26.1566 19.2743 24.7153 21.3677" stroke="#2B5A4D" stroke-miterlimit="10" stroke-linecap="round" stroke-linejoin="round"/>
</svg>
